<?xml version="1.0" encoding="UTF-8"?>
<!DOCTYPE svg PUBLIC "-//W3C//DTD SVG 1.1//EN" "http://www.w3.org/Graphics/SVG/1.1/DTD/svg11.dtd">
<svg xmlns="http://www.w3.org/2000/svg" version="1.1" width="32px" height="32px" style="shape-rendering:geometricPrecision; text-rendering:geometricPrecision; image-rendering:optimizeQuality; fill-rule:evenodd; clip-rule:evenodd" xmlns:xlink="http://www.w3.org/1999/xlink">
<g><path style="opacity:0.8" fill="#848484" d="M 1.5,-0.5 C 5.16667,-0.5 8.83333,-0.5 12.5,-0.5C 17.5,13.1667 13.1667,17.5 -0.5,12.5C -0.5,8.83333 -0.5,5.16667 -0.5,1.5C 0.5,1.16667 1.16667,0.5 1.5,-0.5 Z M 4.5,2.5 C 8.45888,1.57784 10.7922,3.07784 11.5,7C 9.78645,11.6825 6.95312,12.5159 3,9.5C 2.16681,6.829 2.66681,4.49566 4.5,2.5 Z"/></g>
<g><path style="opacity:0.64" fill="#818181" d="M 21.5,0.5 C 22.8333,0.5 24.1667,0.5 25.5,0.5C 25.5,2.16667 25.5,3.83333 25.5,5.5C 27.1667,5.5 28.8333,5.5 30.5,5.5C 30.5,6.83333 30.5,8.16667 30.5,9.5C 28.8333,9.5 27.1667,9.5 25.5,9.5C 25.5,11.1667 25.5,12.8333 25.5,14.5C 24.1667,14.5 22.8333,14.5 21.5,14.5C 21.5,12.8333 21.5,11.1667 21.5,9.5C 19.8333,9.5 18.1667,9.5 16.5,9.5C 16.5,8.16667 16.5,6.83333 16.5,5.5C 18.1667,5.5 19.8333,5.5 21.5,5.5C 21.5,3.83333 21.5,2.16667 21.5,0.5 Z"/></g>
<g><path style="opacity:0.8" fill="#848484" d="M 12.5,31.5 C 8.83333,31.5 5.16667,31.5 1.5,31.5C 1.16667,30.5 0.5,29.8333 -0.5,29.5C -0.5,25.8333 -0.5,22.1667 -0.5,18.5C 13.1667,13.5 17.5,17.8333 12.5,31.5 Z M 5.5,19.5 C 11.3053,20.2761 12.6386,23.1094 9.5,28C 4,29.1667 1.83333,27 3,21.5C 3.9947,20.9341 4.82803,20.2674 5.5,19.5 Z"/></g>
<g><path style="opacity:0.822" fill="#858585" d="M 31.5,18.5 C 31.5,22.1667 31.5,25.8333 31.5,29.5C 30.5,29.8333 29.8333,30.5 29.5,31.5C 25.8333,31.5 22.1667,31.5 18.5,31.5C 13.5,17.8333 17.8333,13.5 31.5,18.5 Z M 22.5,19.5 C 28.6506,20.1029 29.984,22.9362 26.5,28C 21.5454,29.3758 19.3787,27.5425 20,22.5C 20.6979,21.3094 21.5313,20.3094 22.5,19.5 Z"/></g>
</svg>
