<?xml version="1.0" encoding="UTF-8"?>
<!DOCTYPE svg PUBLIC "-//W3C//DTD SVG 1.1//EN" "http://www.w3.org/Graphics/SVG/1.1/DTD/svg11.dtd">
<svg xmlns="http://www.w3.org/2000/svg" version="1.1" width="32px" height="32px" style="shape-rendering:geometricPrecision; text-rendering:geometricPrecision; image-rendering:optimizeQuality; fill-rule:evenodd; clip-rule:evenodd" xmlns:xlink="http://www.w3.org/1999/xlink">
<g><path style="opacity:0.749" fill="#828282" d="M 4.5,-0.5 C 9.5,-0.5 14.5,-0.5 19.5,-0.5C 29.1435,6.37813 32.3102,15.7115 29,27.5C 28.3378,28.9839 27.5045,30.3172 26.5,31.5C 19.1667,31.5 11.8333,31.5 4.5,31.5C 2.39391,29.2812 1.39391,26.6145 1.5,23.5C 2.83333,23.5 4.16667,23.5 5.5,23.5C 5.2965,25.3904 5.96317,26.8904 7.5,28C 12.8333,28.6667 18.1667,28.6667 23.5,28C 24,27.5 24.5,27 25,26.5C 25.499,22.1794 25.6657,17.8461 25.5,13.5C 16.6614,14.9915 13.328,11.3248 15.5,2.5C 11.9929,1.99353 8.82627,2.66019 6,4.5C 5.50137,8.15159 5.3347,11.8183 5.5,15.5C 4.16667,15.5 2.83333,15.5 1.5,15.5C 1.33449,11.4862 1.50115,7.48617 2,3.5C 2.66218,2.01608 3.49551,0.682751 4.5,-0.5 Z M 18.5,4.5 C 20.2959,5.79267 21.9625,7.29267 23.5,9C 21.8659,9.49351 20.1992,9.66018 18.5,9.5C 18.5,7.83333 18.5,6.16667 18.5,4.5 Z"/></g>
<g><path style="opacity:0.704" fill="#828282" d="M -0.5,21.5 C -0.5,20.1667 -0.5,18.8333 -0.5,17.5C 3.51383,17.6655 7.51383,17.4988 11.5,17C 10.1787,15.4555 10.5121,14.2888 12.5,13.5C 19.1667,17.5 19.1667,21.5 12.5,25.5C 10.5121,24.7112 10.1787,23.5445 11.5,22C 7.51383,21.5012 3.51383,21.3345 -0.5,21.5 Z"/></g>
</svg>
