<?xml version="1.0" encoding="UTF-8"?>
<!DOCTYPE svg PUBLIC "-//W3C//DTD SVG 1.1//EN" "http://www.w3.org/Graphics/SVG/1.1/DTD/svg11.dtd">
<svg xmlns="http://www.w3.org/2000/svg" version="1.1" width="32px" height="32px" style="shape-rendering:geometricPrecision; text-rendering:geometricPrecision; image-rendering:optimizeQuality; fill-rule:evenodd; clip-rule:evenodd" xmlns:xlink="http://www.w3.org/1999/xlink">
<g><path style="opacity:0.78" fill="#838383" d="M 7.5,-0.5 C 8.5,-0.5 9.5,-0.5 10.5,-0.5C 11.6936,0.777251 13.3603,1.44392 15.5,1.5C 17.6397,1.44392 19.3064,0.777251 20.5,-0.5C 21.5,-0.5 22.5,-0.5 23.5,-0.5C 26.0003,1.16949 28.6669,2.83616 31.5,4.5C 31.5,12.5 31.5,20.5 31.5,28.5C 30.5,29.5 29.5,30.5 28.5,31.5C 19.8333,31.5 11.1667,31.5 2.5,31.5C 1.5,30.5 0.5,29.5 -0.5,28.5C -0.5,20.5 -0.5,12.5 -0.5,4.5C 2.33307,2.83616 4.99974,1.16949 7.5,-0.5 Z M 4.5,5.5 C 11.8409,5.33368 19.1742,5.50034 26.5,6C 27.3567,6.68909 28.0233,7.52242 28.5,8.5C 19.8333,9.83333 11.1667,9.83333 2.5,8.5C 3.19251,7.48224 3.85917,6.48224 4.5,5.5 Z M 2.5,13.5 C 11.1667,13.5 19.8333,13.5 28.5,13.5C 28.8789,18.2973 28.3789,22.964 27,27.5C 19.9138,28.6456 12.7471,28.8123 5.5,28C 4.58377,27.6258 3.75044,27.1258 3,26.5C 2.50098,22.1794 2.33432,17.8461 2.5,13.5 Z"/></g>
<g><path style="opacity:0.843" fill="#838383" d="M 5.5,16.5 C 12.1667,16.5 18.8333,16.5 25.5,16.5C 25.5,17.5 25.5,18.5 25.5,19.5C 18.8333,19.5 12.1667,19.5 5.5,19.5C 5.5,18.5 5.5,17.5 5.5,16.5 Z"/></g>
<g><path style="opacity:0.627" fill="#818181" d="M 6.5,21.5 C 9.5,21.5 12.5,21.5 15.5,21.5C 15.5,22.8333 15.5,24.1667 15.5,25.5C 12.4816,25.6646 9.48162,25.498 6.5,25C 5.3157,23.8545 5.3157,22.6879 6.5,21.5 Z"/></g>
</svg>
