<?xml version="1.0" encoding="UTF-8"?>
<!DOCTYPE svg PUBLIC "-//W3C//DTD SVG 1.1//EN" "http://www.w3.org/Graphics/SVG/1.1/DTD/svg11.dtd">
<svg xmlns="http://www.w3.org/2000/svg" version="1.1" width="32px" height="32px" style="shape-rendering:geometricPrecision; text-rendering:geometricPrecision; image-rendering:optimizeQuality; fill-rule:evenodd; clip-rule:evenodd" xmlns:xlink="http://www.w3.org/1999/xlink">
<g><path style="opacity:0.865" fill="#838383" d="M -0.5,-0.5 C 0.5,-0.5 1.5,-0.5 2.5,-0.5C 2.33356,8.50617 2.50023,17.5062 3,26.5C 3.75044,27.1258 4.58377,27.6258 5.5,28C 14.1603,28.4998 22.8269,28.6664 31.5,28.5C 31.5,29.5 31.5,30.5 31.5,31.5C 21.8333,31.5 12.1667,31.5 2.5,31.5C 1.5,30.5 0.5,29.5 -0.5,28.5C -0.5,18.8333 -0.5,9.16667 -0.5,-0.5 Z"/></g>
<g><path style="opacity:0.692" fill="#828282" d="M 28.5,-0.5 C 29.5,-0.5 30.5,-0.5 31.5,-0.5C 31.5,0.5 31.5,1.5 31.5,2.5C 28.7029,4.79503 26.0362,7.29503 23.5,10C 19.4179,11.2931 16.2513,10.1265 14,6.5C 11.9806,9.71178 9.14729,11.3784 5.5,11.5C 8.77396,1.92191 13.9406,0.588575 21,7.5C 23.705,4.96376 26.205,2.29709 28.5,-0.5 Z"/></g>
<g><path style="opacity:0.623" fill="#818181" d="M 26.5,9.5 C 27.4959,9.41423 28.3292,9.74756 29,10.5C 29.4994,15.8229 29.666,21.1563 29.5,26.5C 28.1667,26.5 26.8333,26.5 25.5,26.5C 25.2143,20.7414 25.5476,15.0748 26.5,9.5 Z"/></g>
<g><path style="opacity:0.834" fill="#828282" d="M 12.5,11.5 C 13.5,11.5 14.5,11.5 15.5,11.5C 15.5,16.5 15.5,21.5 15.5,26.5C 14.5,26.5 13.5,26.5 12.5,26.5C 12.5,21.5 12.5,16.5 12.5,11.5 Z"/></g>
<g><path style="opacity:0.632" fill="#838383" d="M 6.5,13.5 C 7.4959,13.4142 8.32924,13.7476 9,14.5C 9.49885,18.4862 9.66551,22.4862 9.5,26.5C 8.16667,26.5 6.83333,26.5 5.5,26.5C 5.23071,22.0685 5.56404,17.7352 6.5,13.5 Z"/></g>
<g><path style="opacity:0.814" fill="#828282" d="M 19.5,15.5 C 20.5,15.5 21.5,15.5 22.5,15.5C 22.5,19.1667 22.5,22.8333 22.5,26.5C 21.5,26.5 20.5,26.5 19.5,26.5C 19.5,22.8333 19.5,19.1667 19.5,15.5 Z"/></g>
</svg>
